
<global>
amp_veltrack=0
master-volume=5
</global>

<group>
ampeg_release=0.2
group_label=P
loop_mode=loop_continuous
xf_cccurve=gain
xfin_hicc1=31
xfout_hicc1=63
xfout_locc1=32

<region>
hikey=C4
hivel=127
lokey=C4
loop_end=193816
loop_mode=loop_continuous
loop_start=45394
loop_xfade=42413
lovel=0
sample=Bongos_Sticks_Roll 1_P_D4.opus
</region>

<region>
hivel=127
key=C#4
loop_end=227763
loop_mode=loop_continuous
loop_start=62878
loop_xfade=58749
lovel=0
sample=Bongos_Sticks_Roll 2_P_C4.opus
</region>
</group>

<group>
ampeg_release=0.2
group_label=MP
loop_mode=loop_continuous
xf_cccurve=gain
xfin_hicc1=63
xfin_locc1=32
xfout_hicc1=95
xfout_locc1=64

<region>
hikey=C4
hivel=127
lokey=C4
loop_end=196209
loop_mode=loop_continuous
loop_start=45313
loop_xfade=42337
lovel=0
sample=Bongos_Sticks_Roll 1_MP_D4.opus
</region>

<region>
hivel=127
key=C#4
loop_end=201481
loop_mode=loop_continuous
loop_start=48054
loop_xfade=44898
lovel=0
sample=Bongos_Sticks_Roll 2_MP_C4.opus
</region>
</group>

<group>
ampeg_release=0.2
group_label=MF
loop_mode=loop_continuous
xf_cccurve=gain
xfin_hicc1=95
xfin_locc1=64
xfout_hicc1=127
xfout_locc1=96

<region>
hikey=C4
hivel=127
lokey=C4
loop_end=203614
loop_mode=loop_continuous
loop_start=45509
loop_xfade=42520
lovel=0
sample=Bongos_Sticks_Roll 1_MF_D4.opus
</region>

<region>
hivel=127
key=C#4
loop_end=214114
loop_mode=loop_continuous
loop_start=47855
loop_xfade=44713
lovel=0
sample=Bongos_Sticks_Roll 2_MF_C4.opus
</region>
</group>

<group>
ampeg_release=0.2
group_label=F
loop_mode=loop_continuous
xf_cccurve=gain
xfin_hicc1=127
xfin_locc1=96
xfout_hicc1=127
xfout_locc1=127

<region>
hikey=C4
hivel=127
lokey=C4
loop_end=211045
loop_mode=loop_continuous
loop_start=53457
loop_xfade=49947
lovel=0
sample=Bongos_Sticks_Roll 1_F_D4.opus
</region>

<region>
hivel=127
key=C#4
loop_end=197027
loop_mode=loop_continuous
loop_start=51635
loop_xfade=48245
lovel=0
sample=Bongos_Sticks_Roll 2_F_C4.opus
</region>
</group>

<group>
ampeg_attack=0.01
ampeg_release=1.5
group_label=P_Rel
trigger=release
xf_cccurve=gain
xfin_hicc1=31
xfout_hicc1=63
xfout_locc1=32

<region>
hikey=C4
hivel=127
lokey=C4
lovel=0
offset=215639
sample=Bongos_Sticks_Roll 1_P_D4.opus
</region>

<region>
hivel=127
key=C#4
lovel=0
offset=225955
sample=Bongos_Sticks_Roll 2_P_C4.opus
</region>
</group>

<group>
ampeg_attack=0.01
ampeg_release=1.5
group_label=MP_Rel
trigger=release
xf_cccurve=gain
xfin_hicc1=63
xfin_locc1=32
xfout_hicc1=95
xfout_locc1=64

<region>
hikey=C4
hivel=127
lokey=C4
lovel=0
offset=216411
sample=Bongos_Sticks_Roll 1_MP_D4.opus
</region>

<region>
hivel=127
key=C#4
lovel=0
offset=213299
sample=Bongos_Sticks_Roll 2_MP_C4.opus
</region>
</group>

<group>
ampeg_attack=0.01
ampeg_release=1.5
group_label=MF_Rel
trigger=release
xf_cccurve=gain
xfin_hicc1=95
xfin_locc1=64
xfout_hicc1=127
xfout_locc1=96

<region>
hikey=C4
hivel=127
lokey=C4
lovel=0
offset=227732
sample=Bongos_Sticks_Roll 1_MF_D4.opus
</region>

<region>
hivel=127
key=C#4
lovel=0
offset=238005
sample=Bongos_Sticks_Roll 2_MF_C4.opus
</region>
</group>

<group>
ampeg_attack=0.01
ampeg_release=1.5
group_label=F_Rel
trigger=release
xf_cccurve=gain
xfin_hicc1=127
xfin_locc1=96
xfout_hicc1=127
xfout_locc1=127

<region>
hikey=C4
hivel=127
lokey=C4
lovel=0
offset=233115
sample=Bongos_Sticks_Roll 1_F_D4.opus
</region>

<region>
hivel=127
key=C#4
lovel=0
offset=231465
sample=Bongos_Sticks_Roll 2_F_C4.opus
</region>
</group>